<svg width="103" height="149" viewBox="0 0 103 149" fill="none" xmlns="http://www.w3.org/2000/svg">
<path fill-rule="evenodd" clip-rule="evenodd" d="M49.6987 0.0319993C71.6107 0.939916 91.1193 18.8434 100.843 30.9358C102.876 33.464 102.244 37.1174 99.4866 38.8269C88.5534 45.606 68.7639 55 49.6987 55C30.3992 55 11.9708 45.3737 2.264 38.5782C-0.0898404 36.9303 -0.699231 33.7751 0.866657 31.366C9.24402 18.4772 27.3539 -0.893844 49.6987 0.0319993ZM50.2296 6.20832C44.8538 6.20832 40.0848 8.19113 35.9229 12.1573C31.9344 16.1235 29.9394 21.0379 29.9393 26.9009C29.9393 32.4192 31.9343 37.1616 35.9229 41.1279C40.0848 45.0942 44.8537 47.0781 50.2296 47.0781C56.2989 47.078 61.3278 45.0941 65.3162 41.1279C69.3045 37.1617 71.2985 32.4191 71.2985 26.9009C71.2984 21.038 69.3046 16.1235 65.3162 12.1573C61.3278 8.19111 56.2989 6.20845 50.2296 6.20832Z" fill="white"/>
<path d="M77.1596 68C78.8417 68 80.1951 69.3828 80.1589 71.0645L80.0712 75.1421C80.0448 76.3689 79.0427 77.3496 77.8157 77.3496C74.6046 77.3497 71.8617 78.0251 69.5872 79.375C67.4464 80.725 66.3089 82.4349 66.175 84.5049V133.495C66.3089 135.475 67.4464 137.185 69.5872 138.625C71.8617 139.975 74.6046 140.65 77.8157 140.65C79.1462 140.65 80.2248 141.729 80.2248 143.06V146C80.2248 147.657 78.8817 149 77.2248 149H26.2248C24.568 149 23.2248 147.657 23.2248 146V143.259C23.2248 141.818 24.3927 140.65 25.8332 140.65C28.9106 140.65 31.587 139.975 33.8616 138.625C36.1264 137.191 37.2638 135.49 37.2736 133.521C37.2737 133.507 37.2854 133.496 37.299 133.498C37.3127 133.499 37.3244 133.488 37.3244 133.474L37.2737 84.5049C37.2736 82.4349 36.1362 80.725 33.8616 79.375C31.587 78.0251 28.8442 77.3496 25.633 77.3496C24.303 77.3496 23.2248 76.2714 23.2248 74.9414V71C23.2248 69.3431 24.568 68 26.2248 68L26.7756 68.0688C42.3574 70.0162 58.1143 70.1216 73.7207 68.3831L77.1596 68Z" fill="white"/>
</svg>
