<svg width="725" height="149" viewBox="0 0 725 149" fill="none" xmlns="http://www.w3.org/2000/svg">
<path fill-rule="evenodd" clip-rule="evenodd" d="M49.6987 0.0319993C71.6107 0.939916 91.1193 18.8434 100.843 30.9358C102.876 33.464 102.244 37.1174 99.4866 38.8269C88.5534 45.606 68.7639 55 49.6987 55C30.3992 55 11.9708 45.3737 2.264 38.5782C-0.0898404 36.9303 -0.699231 33.7751 0.866657 31.366C9.24402 18.4772 27.3539 -0.893844 49.6987 0.0319993ZM50.2296 6.20832C44.8538 6.20832 40.0848 8.19113 35.9229 12.1573C31.9344 16.1235 29.9394 21.0379 29.9393 26.9009C29.9393 32.4192 31.9343 37.1616 35.9229 41.1279C40.0848 45.0942 44.8537 47.0781 50.2296 47.0781C56.2989 47.078 61.3278 45.0941 65.3162 41.1279C69.3045 37.1617 71.2985 32.4191 71.2985 26.9009C71.2984 21.038 69.3046 16.1235 65.3162 12.1573C61.3278 8.19111 56.2989 6.20845 50.2296 6.20832Z" fill="white"/>
<path d="M77.1596 68C78.8417 68 80.1951 69.3828 80.1589 71.0645L80.0712 75.1421C80.0448 76.3689 79.0427 77.3496 77.8157 77.3496C74.6046 77.3497 71.8617 78.0251 69.5872 79.375C67.4464 80.725 66.3089 82.4349 66.175 84.5049V133.495C66.3089 135.475 67.4464 137.185 69.5872 138.625C71.8617 139.975 74.6046 140.65 77.8157 140.65C79.1462 140.65 80.2248 141.729 80.2248 143.06V146C80.2248 147.657 78.8817 149 77.2248 149H26.2248C24.568 149 23.2248 147.657 23.2248 146V143.259C23.2248 141.818 24.3927 140.65 25.8332 140.65C28.9106 140.65 31.587 139.975 33.8616 138.625C36.1264 137.191 37.2638 135.49 37.2736 133.521C37.2737 133.507 37.2854 133.496 37.299 133.498C37.3127 133.499 37.3244 133.488 37.3244 133.474L37.2737 84.5049C37.2736 82.4349 36.1362 80.725 33.8616 79.375C31.587 78.0251 28.8442 77.3496 25.633 77.3496C24.303 77.3496 23.2248 76.2714 23.2248 74.9414V71C23.2248 69.3431 24.568 68 26.2248 68C42.1525 70.3251 58.3241 70.451 74.286 68.3739L77.1596 68Z" fill="white"/>
<path d="M180.913 135.255L192.186 137.941L190.609 147.262L164.2 149L159.706 136.519C156.763 140.258 152.9 143.286 148.118 145.603C143.388 147.868 138.395 149 133.139 149C122.944 149 115.192 146.13 109.883 140.39C104.628 134.649 102 126.065 102 114.637V107.29C102 92.4384 105.705 80.8259 113.116 72.4522C120.526 64.0259 130.958 59.8127 144.413 59.8127C146.41 59.8127 148.617 59.9707 151.035 60.2867C153.452 60.55 155.791 60.8923 158.051 61.3137V37.6146L146.778 34.9287L148.354 25.6071L180.913 23.8691V135.255ZM124.862 113.847C124.862 121.746 126.097 127.75 128.567 131.858C131.09 135.913 134.769 137.941 139.604 137.941C142.705 137.941 145.884 137.019 149.143 135.176C152.454 133.28 155.423 130.857 158.051 127.908V72.8472C156.159 72.3732 153.82 71.9256 151.035 71.5042C148.302 71.0829 145.569 70.8723 142.836 70.8723C139.84 70.8723 137.029 71.2409 134.401 71.9782C131.826 72.6629 129.697 73.5318 128.015 74.5851C127.122 78.219 126.36 82.5638 125.729 87.6196C125.151 92.6227 124.862 97.9419 124.862 103.577V113.847Z" fill="white"/>
<path d="M222.616 106.737V111.951C222.616 120.377 224.639 126.828 228.686 131.305C232.786 135.729 238.961 137.941 247.212 137.941C250.786 137.941 254.938 137.414 259.668 136.361C264.398 135.307 268.471 134.122 271.887 132.806V141.969C268.051 143.918 263.11 145.577 257.066 146.946C251.022 148.316 244.873 149 238.619 149C226.163 149 216.572 146.051 209.845 140.153C203.118 134.254 199.754 125.722 199.754 114.558V108.001C199.754 92.8334 203.538 81.0102 211.106 72.5312C218.674 64.0522 229.185 59.8127 242.64 59.8127C254.623 59.8127 263.189 62.6829 268.34 68.4234C273.49 74.1112 276.065 83.4591 276.065 96.4673V106.737H222.616ZM226.4 73.9532C225.559 77.0077 224.797 80.4836 224.114 84.3807C223.483 88.2779 223.063 92.0434 222.852 95.6773H253.204C253.204 86.461 252.152 80.0359 250.05 76.4021C247.948 72.7155 244.374 70.8723 239.329 70.8723C237.121 70.8723 234.888 71.1356 232.628 71.6622C230.421 72.1889 228.345 72.9525 226.4 73.9532Z" fill="white"/>
<path d="M358.605 135.255L369.878 137.941L368.301 147.262L341.892 149L337.398 136.519C334.14 140.258 330.04 143.286 325.1 145.603C320.212 147.868 314.957 149 309.333 149C301.555 149 295.59 147.262 291.438 143.786C287.286 140.258 285.21 135.176 285.21 128.54C285.21 118.534 289.441 111.029 297.902 106.026C306.416 101.023 319.03 98.5212 335.743 98.5212V91.1745C335.743 84.2227 334.534 79.1143 332.116 75.8491C329.751 72.5312 325.888 70.8723 320.528 70.8723C318.32 70.8723 316.244 71.0039 314.3 71.2673C312.408 71.4779 310.752 71.7412 309.333 72.0572L304.603 88.8046L291.359 88.0146V64.0785C295.826 62.8146 300.846 61.7876 306.416 60.9977C312.04 60.2077 317.48 59.8127 322.735 59.8127C334.928 59.8127 343.941 62.2616 349.775 67.1594C355.661 72.0046 358.605 79.3513 358.605 89.1995V135.255ZM335.743 109.581C330.487 109.581 325.573 110.002 321.001 110.845C316.481 111.687 312.96 112.793 310.437 114.163C309.806 115.479 309.254 117.138 308.781 119.139C308.309 121.088 308.072 123.221 308.072 125.538C308.072 129.541 308.887 132.622 310.516 134.781C312.145 136.887 314.484 137.941 317.532 137.941C320.843 137.941 324.154 136.94 327.465 134.939C330.829 132.885 333.588 130.541 335.743 127.908V109.581Z" fill="white"/>
<path d="M389.034 37.6146L377.761 34.9287L379.338 25.6071L411.896 23.8691V135.255L423.17 137.941L421.593 147.262H379.338L377.761 137.941L389.034 135.255V37.6146Z" fill="white"/>
<path d="M543.364 136.677L547.464 121.667L558.816 122.536V146.946H485.5V139.442L532.249 72.4522L531.776 71.5042H503.789L499.69 86.5136L488.338 85.6447V61.2346H559.84V67.7914L512.461 135.729L512.934 136.677H543.364Z" fill="white"/>
<path d="M568.433 137.625L579.707 134.939V73.2422L568.433 70.5563L570.01 61.2346L596.419 59.4967L600.992 71.9782C605.932 67.3964 610.767 64.1839 615.497 62.3406C620.227 60.4447 625.22 59.4967 630.476 59.4967C636.309 59.4967 641.197 60.4447 645.139 62.3406C649.081 64.1839 652.523 67.3964 655.466 71.9782C659.986 67.7651 664.847 64.6315 670.05 62.5776C675.253 60.5237 680.509 59.4967 685.817 59.4967C694.752 59.4967 701.558 61.7876 706.235 66.3694C710.913 70.8986 713.251 77.587 713.251 86.4347V134.939L724.525 137.625L722.948 146.946H680.693L679.116 137.625L690.39 134.939V87.6196C690.39 81.7738 689.47 77.4817 687.63 74.7431C685.791 71.9519 682.821 70.5563 678.722 70.5563C675.674 70.5563 672.231 71.6886 668.395 73.9531C664.611 76.1651 661.116 78.9563 657.91 82.3268V134.939L669.183 137.625L667.607 146.946H625.352L623.775 137.625L635.048 134.939V87.6196C635.048 81.6158 634.102 77.271 632.21 74.5851C630.318 71.8992 627.375 70.5563 623.381 70.5563C620.385 70.5563 617.074 71.6096 613.448 73.7162C609.821 75.7701 606.195 78.6403 602.568 82.3268V134.939L613.842 137.625L612.265 146.946H570.01L568.433 137.625Z" fill="white"/>
<path d="M472.241 62.9463C473.481 62.9463 474.478 64.3291 474.451 66.0108L474.387 70.0884C474.367 71.3151 473.629 72.2959 472.725 72.2959C470.359 72.2959 468.338 72.9713 466.662 74.3213C465.084 75.6712 464.246 77.3812 464.148 79.4511V131.441C464.246 133.421 465.084 135.131 466.662 136.571C468.338 137.921 470.359 138.597 472.725 138.597C473.705 138.597 474.5 139.675 474.5 141.006V143.946C474.5 145.603 473.51 146.946 472.289 146.946H434.711C433.49 146.946 432.5 145.603 432.5 143.946V141.205C432.5 139.764 433.36 138.597 434.422 138.597C436.69 138.597 438.662 137.921 440.338 136.571C442.006 135.137 442.844 133.436 442.852 131.467C442.852 131.453 442.86 131.443 442.87 131.444C442.881 131.445 442.889 131.434 442.889 131.421L442.852 79.4511C442.852 77.3812 442.014 75.6712 440.338 74.3213C438.662 72.9713 436.641 72.2959 434.274 72.2959C433.294 72.2959 432.5 71.2177 432.5 69.8877V65.9463C432.5 64.2894 433.49 62.9463 434.711 62.9463L435.71 63.1645C447.753 65.795 460.23 65.7205 472.241 62.9463Z" fill="white"/>
<path d="M470 38.5C470 47.6127 462.613 55 453.5 55C444.387 55 437 47.6127 437 38.5C437 29.3873 444.387 22 453.5 22C462.613 22 470 29.3873 470 38.5Z" fill="white"/>
</svg>
